/* XPM */
static char * fcnotifier_xpm[] = {
"32 32 309 2",
"  	c None",
". 	c #DC4814",
"+ 	c #DB4713",
"@ 	c #DD4815",
"# 	c #DD4915",
"$ 	c #DD4916",
"% 	c #DD4A16",
"& 	c #DE4B17",
"* 	c #DE4B18",
"= 	c #DD4B17",
"- 	c #DE4A17",
"; 	c #DD4A15",
"> 	c #DC4713",
", 	c #DC4915",
"' 	c #DF4B18",
") 	c #DE4C18",
"! 	c #DE4C19",
"~ 	c #DD4B18",
"{ 	c #DD4814",
"] 	c #DC4714",
"^ 	c #DC4914",
"/ 	c #DF4D1A",
"( 	c #E04E1B",
"_ 	c #DF4E1B",
": 	c #E04F1C",
"< 	c #E14F1C",
"[ 	c #E14F1D",
"} 	c #DF4F1B",
"| 	c #E04D1A",
"1 	c #DF4C19",
"2 	c #DD4A17",
"3 	c #DC4815",
"4 	c #E04F1B",
"5 	c #E1511E",
"6 	c #E1511F",
"7 	c #E2511E",
"8 	c #E1501D",
"9 	c #E04D1B",
"0 	c #DF4D19",
"a 	c #E04E1A",
"b 	c #E2501E",
"c 	c #E35826",
"d 	c #E45E2C",
"e 	c #E46333",
"f 	c #E35F2E",
"g 	c #E15828",
"h 	c #E1501E",
"i 	c #E14F1B",
"j 	c #E04F1D",
"k 	c #E3501D",
"l 	c #E35421",
"m 	c #EE956C",
"n 	c #EE956B",
"o 	c #EB865A",
"p 	c #EC8E65",
"q 	c #ED9670",
"r 	c #F0A582",
"s 	c #F0AD8D",
"t 	c #E47349",
"u 	c #DF4915",
"v 	c #E04E1C",
"w 	c #DC4613",
"x 	c #DE4D19",
"y 	c #DF5828",
"z 	c #E28362",
"A 	c #E17652",
"B 	c #ED8F65",
"C 	c #F2B18C",
"D 	c #F3B593",
"E 	c #F4BA9A",
"F 	c #F3B695",
"G 	c #F2AE8E",
"H 	c #F6CBB2",
"I 	c #EDA788",
"J 	c #E05A2A",
"K 	c #E0501D",
"L 	c #DE4A16",
"M 	c #DD4914",
"N 	c #DF4C18",
"O 	c #DE5626",
"P 	c #F4D1C5",
"Q 	c #FFFFFF",
"R 	c #E58362",
"S 	c #EA8257",
"T 	c #EE9E77",
"U 	c #EFA27E",
"V 	c #EFA886",
"W 	c #F3B697",
"X 	c #F4BC9F",
"Y 	c #F5C6AB",
"Z 	c #F5CAB1",
"` 	c #F3C3AC",
" .	c #DF5F31",
"..	c #EAA68C",
"+.	c #FCF5F1",
"@.	c #E68766",
"#.	c #E56535",
"$.	c #E56031",
"%.	c #E45A28",
"&.	c #E45E2F",
"*.	c #E56E43",
"=.	c #ECA07F",
"-.	c #F4C5AB",
";.	c #F6CCB7",
">.	c #F6CDB8",
",.	c #F2BFA9",
"'.	c #DF5625",
").	c #E1511D",
"!.	c #DC4A16",
"~.	c #DE4B19",
"{.	c #E14E1B",
"].	c #E37C56",
"^.	c #F9E1D5",
"/.	c #F8DBCD",
"(.	c #FAE8DF",
"_.	c #E79476",
":.	c #E35726",
"<.	c #E65928",
"[.	c #E65B29",
"}.	c #E65B2A",
"|.	c #E45827",
"1.	c #E57D56",
"2.	c #F7D1BD",
"3.	c #F7D3C1",
"4.	c #F7D6C5",
"5.	c #E48967",
"6.	c #E14E1A",
"7.	c #E0511E",
"8.	c #F4C7B4",
"9.	c #F6D2BE",
"0.	c #F8D5C5",
"a.	c #EFB097",
"b.	c #E35321",
"c.	c #E75B2B",
"d.	c #E75C2B",
"e.	c #E95D2D",
"f.	c #E95E2D",
"g.	c #E85D2C",
"h.	c #E85B2A",
"i.	c #E34D1A",
"j.	c #E88E6D",
"k.	c #F7D2BF",
"l.	c #F8DACC",
"m.	c #F4D3C6",
"n.	c #DC501F",
"o.	c #E2511F",
"p.	c #DF5E2F",
"q.	c #F5CCB8",
"r.	c #F7D1BE",
"s.	c #F7D5C3",
"t.	c #E75B29",
"u.	c #E85E2D",
"v.	c #E95E2E",
"w.	c #E95F2F",
"x.	c #E95F2E",
"y.	c #E75C2C",
"z.	c #E25827",
"A.	c #F5CBB9",
"B.	c #FBE8E0",
"C.	c #FEFDFA",
"D.	c #E17953",
"E.	c #DD4714",
"F.	c #DE4916",
"G.	c #DE4E1A",
"H.	c #E3764E",
"I.	c #F5C9B2",
"J.	c #F6D1BB",
"K.	c #EA9E7F",
"L.	c #E55624",
"M.	c #E75B2A",
"N.	c #EA6030",
"O.	c #EA6131",
"P.	c #EA6130",
"Q.	c #E85E2C",
"R.	c #E85C2B",
"S.	c #E55523",
"T.	c #EFB59F",
"U.	c #F0BCAA",
"V.	c #E04D19",
"W.	c #E04B17",
"X.	c #E88A65",
"Y.	c #F5C7AC",
"Z.	c #F6CCB4",
"`.	c #E6835D",
" +	c #E65826",
".+	c #EB6231",
"++	c #EB6332",
"@+	c #E75D2C",
"#+	c #E75927",
"$+	c #E17752",
"%+	c #EBA78F",
"&+	c #E14D1B",
"*+	c #E04B18",
"=+	c #E88A64",
"-+	c #F4BEA1",
";+	c #F5C4A9",
">+	c #E68059",
",+	c #E85E2E",
"'+	c #E9602F",
")+	c #EB6232",
"!+	c #EB6333",
"~+	c #E1521F",
"{+	c #E48766",
"]+	c #EA9F85",
"^+	c #DC4B18",
"/+	c #DE4D1A",
"(+	c #E5784E",
"_+	c #F2B090",
":+	c #EA916C",
"<+	c #E65725",
"[+	c #EB8D63",
"}+	c #E76D3D",
"|+	c #E66838",
"1+	c #EB885B",
"2+	c #E26031",
"3+	c #F1AA87",
"4+	c #F2B494",
"5+	c #F2B393",
"6+	c #E15424",
"7+	c #EA5F2F",
"8+	c #E55827",
"9+	c #F1AB87",
"0+	c #EC8B61",
"a+	c #F1A57E",
"b+	c #E87547",
"c+	c #E1501C",
"d+	c #E15322",
"e+	c #F2AF8D",
"f+	c #EF9D78",
"g+	c #F0A07C",
"h+	c #ED9771",
"i+	c #E55625",
"j+	c #E55421",
"k+	c #E77B51",
"l+	c #ED8F68",
"m+	c #F2AE89",
"n+	c #F1A47E",
"o+	c #E35524",
"p+	c #E97F53",
"q+	c #F0A781",
"r+	c #EE9A72",
"s+	c #EF9D76",
"t+	c #E66D40",
"u+	c #E55623",
"v+	c #E65827",
"w+	c #E55926",
"x+	c #E46D41",
"y+	c #F2B595",
"z+	c #F2B18F",
"A+	c #F0A47E",
"B+	c #EA8358",
"C+	c #DD4A18",
"D+	c #ED956B",
"E+	c #EE946C",
"F+	c #E05524",
"G+	c #E27751",
"H+	c #E36C42",
"I+	c #E15523",
"J+	c #E25322",
"K+	c #E36435",
"L+	c #E98F6B",
"M+	c #F3B799",
"N+	c #F1A987",
"O+	c #F0A784",
"P+	c #E35A2A",
"Q+	c #E45C2B",
"R+	c #F09C74",
"S+	c #E4602F",
"T+	c #EAA189",
"U+	c #FDFAF9",
"V+	c #F1C1AE",
"W+	c #EFB39C",
"X+	c #F0B69E",
"Y+	c #F3C6AF",
"Z+	c #F6CCB3",
"`+	c #F4C2A6",
" @	c #F3BA9D",
".@	c #F2B596",
"+@	c #E46A3D",
"@@	c #E2501D",
"#@	c #E45D2D",
"$@	c #E25B29",
"%@	c #F5D5CA",
"&@	c #F9E7DE",
"*@	c #F8D8CA",
"=@	c #F7D6C4",
"-@	c #F4C6AD",
";@	c #F6CAB0",
">@	c #F1B69A",
",@	c #DF4E1C",
"'@	c #DF6B42",
")@	c #F9E7E1",
"!@	c #FBEFEB",
"~@	c #F7D4C5",
"{@	c #F6D3C3",
"]@	c #F6CEBA",
"^@	c #F4C8B2",
"/@	c #F2BCA4",
"(@	c #E9906D",
"_@	c #DD5A2B",
":@	c #E17048",
"<@	c #E37A55",
"[@	c #E27249",
"}@	c #E05D2F",
"|@	c #E05422",
"1@	c #DC4813",
"2@	c #E2501B",
"3@	c #E24D1A",
"4@	c #E24F1C",
"                          . . . . .                             ",
"                  + . . @ # # $ $ # # . . +                     ",
"                . # $ % & * * * * * = - ; # . >                 ",
"            > @ , % - ' ) ! ! ! ! ! ! * ~ % , { ]               ",
"          . ^ - ' ! / ( _ : < [ [ < } ( | 1 * 2 $ >             ",
"        . 3 - * 1 | 4 < [ 5 6 7 6 5 8 : ( 9 0 & - # >           ",
"      + # - * / a : 8 8 b c d e f g h i 8 : ( 0 ) - @ .         ",
"    > . % * 0 _ j 8 k l m n o p q r s t u 8 : v / * % # w       ",
"    . $ * x / 8 8 y z A 8 B C D E F G H I J < K : 1 * L .       ",
"  + M - N ( j h O P Q Q R S T U V W X Y Z `  .< : _ ! & # .     ",
"  . % * / ( 8 ! ..+.Q Q @.#.$.%.&.*.=.-.;.>.,.'.).: / ' !..     ",
"  3 2 ~.( : {.].^./.(._.:.<.[.}.}.<.|.1.2.3.4.5.6.K _ / - # +   ",
"  # & 0 : 8 7.8.9.0.a.b.c.d.e.f.f.g.h.i.j.k.l.m.n.8 ( | * # ]   ",
". $ * 1 < o.p.q.r.s.O t.d.u.v.w.x.f.y.y.z.A.B.C.D.< : ( ) % .   ",
"E.F.* G.[ < H.I.J.K.L.M.u.v.N.O.P.x.Q.R.S.T.Q Q U.V.: ( 1 % .   ",
"# L ) ( 8 W.X.Y.Z.`. +R.v.w..+++.+P.u.@+#+$+Q Q %+&+j ( 1 - .   ",
"# L ) ( 8 *+=+-+;+>+ +R.,+'+)+!+)+P.u.@+M.~+{+]+^+o.j ( 1 - .   ",
"E.F.) /+8 i (+_+-+:+ +M.f.w.N.O.P.w.g.d.<+[+}+|+1+[ < ( 1 % .   ",
". $ * 1 < o.2+3+4+5+6+M.d.u.x.7+x.v.@+h.8+9+0+a+b+c+: ( ) % .   ",
". # & / : 8 d+e+f+g+h+i+M.@+f.f.f.g.M.j+k+l+m+n+o+8 ( | * $ >   ",
"  3 2 ' ( [ : p+q+r+s+t+u+v+M.h.M.<.w+x+y+z+A+B+< K _ / & # +   ",
"  . % C+| ( 8 h D+E+n F+G+H+I+{.J+K+L+M+y+N+O+P+8 : / N % .     ",
"  + @ & 1 _ < h Q+R+S+T+Q U+V+W+X+Y+Z+`+ @.@+@: j _ 1 * $ .     ",
"    . % ' 0 _ 8 @@#@$@%@Q Q &@*@=@r.-@;@>@2+< 8 : 1 & L .       ",
"    > . - * 0 ,@c+h 8 '@)@!@~@{@]@^@/@(@- 8 j 4 / ) - # >       ",
"      > # - * 1 _ j 8 i 7._@:@<@[@}@|@9 h : ,@/ ~.- $ .         ",
"        1@, - * 0 _ ( : 5 o.2@3@4@o.5 : : a / ' - $ ]           ",
"          1@@ - * ! | ( : [ 8 8 8 < : _ a 0 * - % ]             ",
"            + @ , 2 - ) ! ! 0 / /+! ! N * % $ @ .               ",
"              > . # % 2 & * * ) * * * - % # 3 ]                 ",
"                  + . @ # $ F.L F.$ # { . ]                     ",
"                          . { @ @ . .                           "};
